<svg xmlns="http://www.w3.org/2000/svg" fill="none" viewBox="0 0 50 59"><defs/><path fill="url(#paint0_linear)" fill-rule="evenodd" d="M47.7 14l1.3-3.4-3.7-4c-2.1-2-6.5-.8-6.5-.8l-5-5.8H16.2l-5 5.8s-4.4-1.3-6.5.9c-2 2-3.7 4-3.7 4L2.3 14 .6 19l5.6 21.7c1.2 4.7 2 6.5 5.3 8.8l10.2 7.1c1 .6 2.2 1.7 3.3 1.7 1.1 0 2.3-1 3.3-1.7l10.2-7c3.3-2.4 4.1-4.2 5.3-8.9L49.4 19l-1.7-5z" clip-rule="evenodd"/><path fill="#fff" fill-rule="evenodd" d="M25 36.3c.3 0 2.5.7 4.2 1.7l3.4 1.8c.4.2.1.7-.2 1l-5.8 4.5c-.4.4-1.1 1.1-1.6 1.1s-1.2-.7-1.6-1.1l-5.8-4.5c-.3-.3-.6-.8-.2-1l3.4-1.8c1.7-1 3.9-1.7 4.2-1.7zm0-27.4c.2 0 1.1 0 2.4.5 1.5.5 3 1.1 3.8 1.1.8 0 6.2-1 6.2-1s6.4 7.9 6.4 9.6c0 1.7-.8 2.1-1.6 3l-4.8 5.2c-.5.5-1.4 1.2-.9 2.6.6 1.3 1.4 3 .5 4.8-1 1.7-2.5 2.9-3.5 2.7-1-.2-3.4-1.4-4.2-2-1-.6-3.7-3-3.7-3.8 0-.9 2.9-2.5 3.4-2.8.5-.4 3-1.8 3-2.3 0-.6 0-.8-.7-2.1-.7-1.4-2-3.2-1.8-4.4.2-1.2 2.3-1.8 3.8-2.4l4.6-1.8c.4-.1.3-.3-.8-.4-1-.1-4.1-.5-5.5-.1-1.3.4-3.7 1-3.9 1.3-.2.3-.3.3-.1 1.4l1.3 7.2c0 .9.3 1.5-.7 1.7-1 .3-2.6.6-3.2.6-.6 0-2.2-.3-3.2-.6-1-.2-.8-.8-.7-1.7l1.3-7.2c.2-1.1 0-1.1-.1-1.4-.2-.3-2.6-1-4-1.3-1.3-.4-4.3 0-5.4.1-1 .1-1.2.3-.8.4l4.6 1.8c1.5.6 3.6 1.2 3.8 2.4.2 1.2-1 3-1.8 4.4-.7 1.3-.7 1.5-.7 2 0 .6 2.5 2 3 2.4.5.3 3.4 2 3.4 2.8 0 .9-2.8 3.2-3.7 3.8-.8.6-3.2 1.8-4.2 2-1 .2-2.6-1-3.5-2.7-1-1.7 0-3.5.5-4.8.5-1.4-.4-2.1-.9-2.6l-4.8-5.2c-.8-.9-1.6-1.3-1.6-3s6.4-9.7 6.4-9.7 5.4 1.1 6.2 1.1c.7 0 2.3-.6 3.8-1.1 1.3-.5 2.2-.5 2.4-.5z" clip-rule="evenodd"/><mask id="a" width="42" height="11" x="4" y="0" maskUnits="userSpaceOnUse"><path fill="#fff" d="M38.8 5.8l-5-5.8H16.2l-5 5.8s-4.4-1.3-6.5.9c0 0 5.9-.6 8 2.7 0 0 5.3 1.1 6 1.1.8 0 2.4-.6 3.9-1.1 1.4-.5 2.4-.5 2.4-.5s1 0 2.4.5c1.5.5 3 1.1 3.8 1.1.8 0 6.2-1 6.2-1 2-3.4 7.9-2.8 7.9-2.8-2.1-2.2-6.5-1-6.5-1z"/></mask><g mask="url(#a)"><path fill="url(#paint1_linear)" d="M38.8 5.8l-5-5.8H16.2l-5 5.8s-4.4-1.3-6.5.9c0 0 5.9-.6 8 2.7 0 0 5.3 1.1 6 1.1.8 0 2.4-.6 3.9-1.1 1.4-.5 2.4-.5 2.4-.5s1 0 2.4.5c1.5.5 3 1.1 3.8 1.1.8 0 6.2-1 6.2-1 2-3.4 7.9-2.8 7.9-2.8-2.1-2.2-6.5-1-6.5-1z"/></g><defs><linearGradient id="paint0_linear" x1=".6" x2="49.4" y1="29.6" y2="29.6" gradientUnits="userSpaceOnUse"><stop stop-color="#F50"/><stop offset=".4" stop-color="#F50"/><stop offset=".6" stop-color="#FF2000"/><stop offset="1" stop-color="#FF2000"/></linearGradient><linearGradient id="paint1_linear" x1="5.6" x2="45.3" y1="5.3" y2="5.3" gradientUnits="userSpaceOnUse"><stop stop-color="#FF452A"/><stop offset="1" stop-color="#FF2000"/></linearGradient></defs></svg>